<svg data-v-6805eed4="" version="1.0" xmlns="http://www.w3.org/2000/svg" xmlns:xlink="http://www.w3.org/1999/xlink" width="100%" height="100%" viewBox="0 0 340.000000 250.000000" preserveAspectRatio="xMidYMid meet" color-interpolation-filters="sRGB" style="margin: auto;"> <rect data-v-6805eed4="" x="0" y="0" width="100%" height="100%" fill="url(#93)" fill-opacity="0" class="background"></rect> <rect data-v-6805eed4="" x="0" y="0" width="100%" height="100%" fill="url(#watermark)" fill-opacity="1" class="watermarklayer"></rect> <g data-v-6805eed4="" class="iconmbgsvg" transform="translate(106.51499938964844,54.68910217285156)"><g fill="#fff" hollow-target="textRect"><g transform="matrix(1,0,0,1,22.235000610351562,0)" mask="url(#4c97f1b8-1368-4d45-957f-e8caf9182844)" opacity="1"><g><rect fill="#fff" fill-opacity="0" stroke-width="2" x="0" y="0" width="82.49999999999999" height="140.62180404990792" class="image-rect"></rect> <svg filter="url(#colors3736290968)" x="0" y="0" width="82.49999999999999" height="140.62180404990792" filtersec="colorsf221772741" class="image-svg-svg primary" style="overflow: visible;"><svg xmlns="http://www.w3.org/2000/svg" viewBox="0 0 55.1 91.10001"><path d="M2 14.8C2 7.7 7.7 2 14.8 2c7 0 12.8 5.7 12.8 12.8m-.1 0v30.8M2 14.8V70c0 3.5 2.9 6.4 6.4 6.4s6.4-2.9 6.4-6.4V14.8m12.7 61.5c0 7 5.7 12.8 12.8 12.8 7 0 12.8-5.7 12.8-12.8m-25.6 0V45.5M53 76.3V21.1c0-3.5-2.9-6.4-6.4-6.4-3.5 0-6.4 2.9-6.4 6.4v55.2M53 76.3" fill="none" stroke="#202121" stroke-width="4" stroke-miterlimit="10"></path></svg></svg> <defs><filter id="colors3736290968"><feColorMatrix type="matrix" values="0 0 0 0 0.99609375  0 0 0 0 0.99609375  0 0 0 0 0.99609375  0 0 0 1 0" class="icon-fecolormatrix"></feColorMatrix></filter> <filter id="colorsf221772741"><feColorMatrix type="matrix" values="0 0 0 0 0.99609375  0 0 0 0 0.99609375  0 0 0 0 0.99609375  0 0 0 1 0" class="icon-fecolormatrix"></feColorMatrix></filter> <filter id="colorsb9775372297"><feColorMatrix type="matrix" values="0 0 0 0 0  0 0 0 0 0  0 0 0 0 0  0 0 0 1 0" class="icon-fecolormatrix"></feColorMatrix></filter></defs></g></g> <g transform="translate(0,47.6108980178833)"><g data-gra="path-name" fill-rule="" class="tp-name" opacity="1" transform="matrix(1,0,0,1,0,0)"><g transform="scale(1)"><g><path d="M22.6 0L30.2 0 18.44-29.4 11.76-29.4 0 0 7.6 0 9.28-4.62 20.92-4.62ZM11.55-10.79L13.65-16.51C14.28-18.19 15.04-20.83 15.08-20.83L15.12-20.83C15.16-20.83 15.92-18.19 16.55-16.51L18.65-10.79ZM53.63 0L61.24 0 49.48-29.4 42.8-29.4 31.04 0 38.64 0 40.32-4.62 51.95-4.62ZM42.59-10.79L44.69-16.51C45.32-18.19 46.07-20.83 46.12-20.83L46.16-20.83C46.2-20.83 46.96-18.19 47.59-16.51L49.69-10.79ZM63.67-29.4L63.67 0 70.73 0 70.73-9.24 74.89-9.24C82.11-9.24 86.48-13.02 86.48-19.32 86.48-25.62 82.11-29.4 74.89-29.4ZM70.73-15.83L70.73-22.81 74.76-22.81C77.49-22.81 79.13-21.5 79.13-19.32 79.13-17.14 77.49-15.83 74.76-15.83ZM97.23 0L97.23-29.4 90.17-29.4 90.17 0ZM103.78-29.4L103.78 0 116.47 0C123.73 0 126.97-3.99 126.97-8.9 126.97-11.89 124.57-15.08 121.8-15.83L121.8-15.88C123.56-16.51 125.45-18.86 125.45-21.63 125.45-25.91 121.8-29.4 116.55-29.4ZM110.84-17.93L110.84-23.48 115.08-23.48C116.97-23.48 118.36-22.3 118.36-20.71 118.36-19.11 116.97-17.93 115.08-17.93ZM110.84-5.92L110.84-12.56 115.75-12.56C117.98-12.56 119.57-11.3 119.57-9.24 119.57-7.31 118.1-5.92 115.75-5.92Z" transform="translate(0, 29.399999618530273)"></path></g> <!----> <!----> <!----> <!----> <!----> <!----> <!----></g></g> <!----></g></g></g><mask id="4c97f1b8-1368-4d45-957f-e8caf9182844"><g fill="white"><g><rect fill-opacity="1" stroke-width="2" x="0" y="0" width="82.49999999999999" height="140.62180404990792" class="image-rect"></rect> <svg x="0" y="0" width="82.49999999999999" height="140.62180404990792" class="image-svg-svg primary" style="overflow: visible;" filter="url(#colorsf221772741)"><svg xmlns="http://www.w3.org/2000/svg" viewBox="0 0 55.1 91.10001"><path d="M2 14.8C2 7.7 7.7 2 14.8 2c7 0 12.8 5.7 12.8 12.8m-.1 0v30.8M2 14.8V70c0 3.5 2.9 6.4 6.4 6.4s6.4-2.9 6.4-6.4V14.8m12.7 61.5c0 7 5.7 12.8 12.8 12.8 7 0 12.8-5.7 12.8-12.8m-25.6 0V45.5M53 76.3V21.1c0-3.5-2.9-6.4-6.4-6.4-3.5 0-6.4 2.9-6.4 6.4v55.2M53 76.3" fill="none" stroke="#202121" stroke-width="4" stroke-miterlimit="10"></path></svg></svg> <defs>  </defs></g></g> <g transform="translate(-22.235000610351562,47.6108980178833)"><rect fill="black" fill-opacity="1" x="-3.5" y="-3.5" width="133.97000122070312" height="36.39999961853027"></rect><rect fill="black" fill-opacity="1" x="-3.5" y="-3.5"></rect></g><g transform="translate(-22.235000610351562,47.6108980178833)" fill="black"><g data-gra="path-name" fill-rule="" class="tp-name" opacity="1" transform="matrix(1,0,0,1,0,0)"><g transform="scale(1)"><g><path d="M22.6 0L30.2 0 18.44-29.4 11.76-29.4 0 0 7.6 0 9.28-4.62 20.92-4.62ZM11.55-10.79L13.65-16.51C14.28-18.19 15.04-20.83 15.08-20.83L15.12-20.83C15.16-20.83 15.92-18.19 16.55-16.51L18.65-10.79ZM53.63 0L61.24 0 49.48-29.4 42.8-29.4 31.04 0 38.64 0 40.32-4.62 51.95-4.62ZM42.59-10.79L44.69-16.51C45.32-18.19 46.07-20.83 46.12-20.83L46.16-20.83C46.2-20.83 46.96-18.19 47.59-16.51L49.69-10.79ZM63.67-29.4L63.67 0 70.73 0 70.73-9.24 74.89-9.24C82.11-9.24 86.48-13.02 86.48-19.32 86.48-25.62 82.11-29.4 74.89-29.4ZM70.73-15.83L70.73-22.81 74.76-22.81C77.49-22.81 79.13-21.5 79.13-19.32 79.13-17.14 77.49-15.83 74.76-15.83ZM97.23 0L97.23-29.4 90.17-29.4 90.17 0ZM103.78-29.4L103.78 0 116.47 0C123.73 0 126.97-3.99 126.97-8.9 126.97-11.89 124.57-15.08 121.8-15.83L121.8-15.88C123.56-16.51 125.45-18.86 125.45-21.63 125.45-25.91 121.8-29.4 116.55-29.4ZM110.84-17.93L110.84-23.48 115.08-23.48C116.97-23.48 118.36-22.3 118.36-20.71 118.36-19.11 116.97-17.93 115.08-17.93ZM110.84-5.92L110.84-12.56 115.75-12.56C117.98-12.56 119.57-11.3 119.57-9.24 119.57-7.31 118.1-5.92 115.75-5.92Z" transform="translate(0, 29.399999618530273)"></path></g>       </g></g> </g></mask><defs v-gra="od"></defs></svg>